<svg id="Group_591" data-name="Group 591" xmlns="http://www.w3.org/2000/svg" xmlns:xlink="http://www.w3.org/1999/xlink" width="595.775" height="367.723" viewBox="0 0 595.775 367.723">
  <defs>
    <clipPath id="clip-path">
      <rect id="Rectangle_97" data-name="Rectangle 97" width="595.775" height="367.723" fill="#d2b37b"/>
    </clipPath>
  </defs>
  <g id="Group_590" data-name="Group 590" clip-path="url(#clip-path)">
    <path id="Path_477" data-name="Path 477" d="M166.229,3.7C134.355-.442,100.213,5.293,74.886,25.722,44.712,49.238,30.362,93.551,50.018,127.728c17.465,32.33,60.212,48.114,82.922,12.978A28.931,28.931,0,0,0,117.107,97.36c-11.959-3.953-25.623-.4-35.874,6.3C47.914,127.291,43.026,187.29,53.094,224.247c6.087,20.733,19.268,39.192,36.056,52.67,47.246,37.924,117.6,36.98,172.222,14.814,28.675-11.368,55.083-28.74,79-49.262,25.235-21.1,45.144-46.906,71.44-68.048,37.119-30.921,85.548-41.436,127.912-12.795a80.032,80.032,0,0,1,31.3,46.128c6.458,27.347-2.328,58.561-24.8,76.172-29.926,24.122-78,16.558-95.793-18.124a57,57,0,0,1-.268-51.989c12.353-23.755,44.686-32.449,67.707-19.817a44.19,44.19,0,0,1,17.505,17.311c-9.223-13.5-25.819-20.524-41.765-18.6-55.824,6.657-50.663,83.321,2.235,89.864,29.941,3.789,55.5-18.951,57.177-48.857,2.913-38.443-29.184-65.393-66.121-64.612-22.121.357-41.8,11.53-58.435,25.65-24.289,20.747-44.686,47.618-69.511,69.021-41.231,36.955-93.621,65.495-149.751,71.571C133.552,345.107,51.27,312.278,26.434,235.184c-7.719-27.14-7.6-55.589-1.954-83.025,8.529-42.6,37.658-83.785,85.617-80.938,40.34,3.4,63.838,46.5,41.117,80.908C126.763,188.7,80.306,187.95,51.468,157.2,11.244,115.588,23.994,50.275,69.993,19.12,97.919-.262,133.972-3.907,166.229,3.7" transform="translate(22.68 0)" fill="#d2b37b"/>
    <path id="Path_478" data-name="Path 478" d="M42.127,89.017c11.984,40.235,46.545,68.483,86.208,78.019,60.334,14.259,118.881-11.2,171.378-41.649a185.343,185.343,0,0,1-62.723,53.589c-50.577,27.44-119.636,27.145-163.313-13.44C52.585,146.487,38.5,117.323,42.127,89.017" transform="translate(46.156 98.864)" fill="#d2b37b"/>
    <path id="Path_479" data-name="Path 479" d="M371.532,200.75C304.174,289.332,168,309.782,76.447,245.83,40.264,221.208,10.224,183.9,2.13,140.181a123.734,123.734,0,0,1,4.876-64c-.6,5.268-1.161,10.5-1.344,15.781A136.3,136.3,0,0,0,11.7,137.83c15.4,48.852,56.292,85.619,101.827,106.548,85.13,39.2,188.286,18.654,258.008-43.629" transform="translate(0 84.613)" fill="#d2b37b"/>
  </g>
</svg>
