<svg xmlns="http://www.w3.org/2000/svg" xmlns:xlink="http://www.w3.org/1999/xlink" width="626.405" height="226.606" viewBox="0 0 626.405 226.606">
  <defs>
    <clipPath id="clip-path">
      <rect id="Rectangle_100" data-name="Rectangle 100" width="626.405" height="226.606" fill="#f5f1dc"/>
    </clipPath>
  </defs>
  <g id="Group_594" data-name="Group 594" opacity="0.747">
    <g id="Group_593" data-name="Group 593" clip-path="url(#clip-path)">
      <path id="Path_480" data-name="Path 480" d="M0,215.719c9.531-29.488,42.734-47.554,72.93-39.287,18.82,5.047,31.708,16.357,49.384,14.7,12.582-1.437,26.207-5.412,35.748-13.763,5.575-4.8,7.52-12.988,2.169-18.5-4.224-4.485-11.408-2.63-14.722,2.012-5.32,6.819-2.954,16.114,2.382,22.807,8.981,10.53,25.01,14.694,38.655,17.563,42.26,8.915,88.792-4.516,119.387-35.638,7.527-6.81,16.428-14.462,21.9-22.826,7.388-10.828,11.011-26.22,3.626-37.79-7.368-12.221-22.764-14.437-33.275-4.928a33.976,33.976,0,0,0-10.715,26.839c1.662,17.3,12.73,32.091,25.7,43.086,70.931,58.808,182.892,56.149,244.579-14.3,26.358-29.4,36.69-74.34,14.98-109.051C562.582,30.363,545.274,18.763,526.2,16.392c-34.23-4.264-63,23.738-58.295,58.166,1.608,13.4,9.44,26.493,22.848,30.441a29.157,29.157,0,0,0,16.453.519c9.365-2.329,17.446-9.989,18.21-19.876.811-10.074-5.59-20.34-15.628-23.269l.4-1.694c11.488,2.029,20.139,13.425,20.055,25.131.17,16.963-16.794,29.164-32.786,28.776A40.172,40.172,0,0,1,465.87,98.464c-9.657-13.148-12.093-29.994-9.493-45.756C460.359,28.493,480.049,8.3,503.662,2.272c41.281-10.509,82.02,16.676,94.561,56.206,17.893,55.932-14.927,109.379-61.685,138.649C485.8,230.262,419.112,235.9,363.7,211.832c-31.582-13.719-70.6-38.249-80.45-73.209a54.511,54.511,0,0,1-1.973-11.364,41.113,41.113,0,0,1,5.838-22.323c27.527-42.838,85.685,7.183,31.813,58.541-2.455,2.461-9.037,9.112-11.37,11.554-37.759,40.224-100.3,54.483-151.552,33.212a59.448,59.448,0,0,1-16.99-11.011,41.261,41.261,0,0,1-9.877-15.356c-4-10.442-2.356-23.424,5.442-31.893,9.145-10.443,26.566-12.093,36.286-1.4,7.082,7.275,8.82,18.783,4.758,28.068-7.435,15.642-25.347,22.113-40.934,25.324-29.228,5.813-40.32-7.564-64.369-16.646-26.675-9-56.979,5.468-68.709,31.045L0,215.719" transform="translate(0 0)" fill="#f5f1dc"/>
      <path id="Path_481" data-name="Path 481" d="M451.977,81.135c-6.485,34.982-39.494,58.348-71.016,70.079-46.806,17.585-103.712,13.5-144.208-16.649,19.9,5.811,39.535,9.578,59.228,10.6,53.6,2.838,126.5-15.108,156-64.026" transform="translate(110.507 37.871)" fill="#f5f1dc"/>
      <path id="Path_482" data-name="Path 482" d="M355.919,204.169c44.868-23.63,81.238-62.67,91.08-113.1,3.365-16.283,3.734-33.287,2.031-51,8.5,15.693,12.11,34.249,11.071,52.633-2.662,55.279-49.229,105.52-104.183,111.464" transform="translate(166.129 18.704)" fill="#f5f1dc"/>
      <path id="Path_483" data-name="Path 483" d="M307.818,24.1c-7.1,31.148-2.489,67.008,25.67,85.757,23.822,15.9,56.379,9.167,73.334-14.094-3.369,17.343-18.56,31.283-35.686,35.854-17.963,5.208-38.3.531-52.77-11.3-29.3-22.8-32.42-67.973-10.547-96.212" transform="translate(137.023 11.248)" fill="#f5f1dc"/>
    </g>
  </g>
</svg>
