<svg xmlns="http://www.w3.org/2000/svg" xmlns:xlink="http://www.w3.org/1999/xlink" width="952" height="493.878" viewBox="0 0 952 493.878">
  <defs>
    <clipPath id="clip-path">
      <rect id="Rectangle_107" data-name="Rectangle 107" width="952" height="493.878" fill="#6e8330"/>
    </clipPath>
  </defs>
  <g id="Group_603" data-name="Group 603" opacity="0.138" clip-path="url(#clip-path)">
    <path id="Path_495" data-name="Path 495" d="M168.1,196.538c24.679,15.682,59.747,4.567,72.767-21.192,10.2-19.859,3.817-44.063-10.253-60.38-30.013-36.305-80.013-27.557-107.9,6.643-36.176,42.973-11.565,110.239,35.443,134.031,38.406,20.487,88.073,9.275,117.691-21.386,31.036-29.945,41.237-78.068,26.618-118.583C280.845,52.3,216.39,15.927,150.912,26.351,38.374,42.885-21.4,163.295,18.5,266.484,40.778,325.871,95.4,367.08,155,384.3c62.605,18.446,130.072,17.914,193.239,2.588,6.757-1.88,18.552-5.264,25.145-7.172,6.618-2.369,18.108-6.268,24.619-8.741,4.323-1.805,16.151-6.794,20.633-8.676,8.823-4.187,18.128-8.58,26.72-13.241,4.259-2.436,15.287-8.734,19.4-11.12,9.608-6.36,21.751-13.834,30.8-20.919,64.073-46.846,114.825-111.93,143.336-186.04l-2.285-13.4.052.107c-2.367-2.665-4.875-5.729-7.4-8.326-1.341-1.47-4.822-4.733-6.148-6.121-1.12-1.031-5.277-4.574-6.529-5.692-30.993-25.6-72.739-38.091-112.633-32.431-41.887,5.438-81.3,33.035-97.085,72.846-18.21,45.093,4.847,102.193,55.389,110.606,31.887,6.3,65.252-15.729,69.831-48.282,4.532-23.812-11.435-47.932-34.726-53.991-14.726-4.167-32.121-.519-42.352,11.147-10.519,10.743-14.137,29.851-3.251,41.587,7.172,8.242,20.353,13.263,30.176,6.735,9.382-6.161,10.772-20.31,3.921-28.791,8.294,11.4.787,30.666-14.445,29.091-6.541-.561-12.6-4.49-16.618-9.578-12.915-16.412,2.687-40.723,21.348-43.37,25.764-5.207,50.867,19.285,44.671,45.193-3.474,18.5-19.176,33.271-37.554,36.082-31.962,4.9-60.782-21.388-63.564-52.732-5.955-47.353,38.061-86.588,82.364-93.142a122.214,122.214,0,0,1,86.628,19.96,117.44,117.44,0,0,1,24.609,22.235l3.4,4.048-2.285-13.4c-35.138,85.791-101.58,157.579-183.6,200.48-8.036,4.217-16.668,8.284-24.872,12.138-4.194,1.723-15.106,6.268-19.168,7.949-6.039,2.272-16.72,5.8-22.836,7.986-2.24.673-7.7,2.148-9.978,2.806-88.24,25.868-214.4,18.8-279.184-53.536C.879,216.047,41.4,72.947,155.213,54.531c52.1-9.377,105.243,19.419,123.477,69.506,35.786,95.684-93.509,174-148.627,79.181-17.971-33.094-9.615-70.835,22.506-91.19,14.775-9.526,33.668-13.136,50.04-6.615,25.525,9.747,45.568,40.9,33.658,67.738-10.934,25.155-43.991,36.658-68.17,23.387" transform="translate(297.93 36.46)" fill="#6e8330"/>
    <path id="Path_496" data-name="Path 496" d="M817.287,201.093C708.292,274.053,568.18,296.666,443.333,256.1a412.9,412.9,0,0,1-70.519-30.258c-21.639-12.046-42.344-28.071-63.646-44.093-42.094-31.728-92.417-67.313-148.779-64.2-91.5,3.68-134.222,113.614-62.466,173.75,24.368,19.717,57.892,26.561,87.48,15.225C248.651,281.108,255.11,187.964,184,169.151c-46.693-12.488-84.733,36.856-62.963,78.816-9.481-24.266,1.579-54.194,24.736-65.2,21.793-10.68,49.645.055,62.642,19.186,13.5,19.034,9.541,45.781-4.435,63.427C172.919,305,113.234,287.033,96.11,243.629c-12.938-30.852,1.346-68.49,30.283-84.552,31.284-17.194,67.646-9.727,99.352,6.317,46.367,23.35,85.871,62.687,132.645,87.4,145.106,77.033,335.425,56.576,458.9-51.7" transform="translate(-18.834 174.076)" fill="#6e8330"/>
    <path id="Path_497" data-name="Path 497" d="M482.829,363.357c-41.885-23.191-59-71.816-59.605-117.46-.646-31.277,4.8-62.548,6.141-94.366,1.773-33.906-1.115-70.211-19.163-100.83C391.553,17.274,353.763-4.514,314.815.8,250.561,8.955,219.588,96.2,278,133.77c24.649,16.2,61.652,12.193,79.057-12.548,17.912-24.162,14.013-57.3-13.4-71.962-14.984-8.269-34.621-7.087-47.6,3.707,13.874-6.956,30.906-5.523,42.826,3.866,16.047,12.059,18.806,33.223,6.71,48.841-11.848,17.554-37.348,19.446-53.5,6.963C258.7,88.287,281.105,36.008,319.057,32.412c43.685-4.241,71.371,33.934,78.24,73.77,5.558,29.794,3.325,61.219,2.938,92.109-.484,24.607.343,49.789,6.434,73.859,9.628,39.784,35.443,78.97,76.161,91.207" transform="translate(-144.269 0)" fill="#6e8330"/>
    <path id="Path_498" data-name="Path 498" d="M144.044,80.5c-19.737,36.643-42.168,70.517-69.752,101.177C49.822,208.88,22.2,233.094,7.215,268c-13.628,30.549-8.061,65.456,17.646,87.967,24.746,21.862,64.6,25.95,90.576,3.683,26.494-21.12,34.291-61.051,11.257-87.82-15.158-18.984-43.9-27.187-65.374-14.3-12.508,7.273-22.071,19.419-24.44,33.777-3.623,23.377,17.043,49,40.492,34.84-3.68.862-7.852,1.547-11.579.817-10.934-1.617-17.271-12.853-17.559-23.1-.589-13.323,9.575-25,21.465-29.593,23.04-9.563,47.979,15.858,41.984,38.838-8.458,30.395-41.992,38.97-65.635,18.493-26.7-23.5-11.433-57.452,5.9-82.839,13.916-20.825,31.381-39.983,45.389-61.383,21.594-32.513,38.036-69.042,46.707-106.881" transform="translate(807.956 119.395)" fill="#6e8330"/>
    <path id="Path_499" data-name="Path 499" d="M347.921,310.805c-40.8-43.5-37.661-111.629,6.188-151.041,20.492-19,44.406-31.8,72.441-33.879,29.364-2.389,59.076,5.8,88.178,13.484C490.02,117.7,460.283,102.212,426.655,99.53c-34.82-3.213-70.293,12.732-94.512,36.764a118.628,118.628,0,0,0-29.4,43.454c-19.33,47.4-3,109.151,45.178,131.056" transform="translate(-294.81 147.019)" fill="#6e8330"/>
  </g>
</svg>
