<svg xmlns="http://www.w3.org/2000/svg" width="31.43" height="31.428" viewBox="0 0 31.43 31.428">
  <path id="Path_493" data-name="Path 493" d="M136.624,15.668h23.361a4.045,4.045,0,0,1,4.033,4.034V43.063a4.044,4.044,0,0,1-4.033,4.033H136.624a4.046,4.046,0,0,1-4.036-4.033V19.7a4.047,4.047,0,0,1,4.036-4.034m18.861,3.49a1.42,1.42,0,0,0-1.416,1.417V23.96a1.419,1.419,0,0,0,1.416,1.416h3.552a1.419,1.419,0,0,0,1.415-1.416V20.575a1.42,1.42,0,0,0-1.415-1.417Zm4.98,9.8H157.7a9.192,9.192,0,0,1,.4,2.7,9.775,9.775,0,0,1-19.541,0,9.233,9.233,0,0,1,.4-2.7h-2.885V42.235a1.25,1.25,0,0,0,1.248,1.247h21.887a1.249,1.249,0,0,0,1.248-1.247ZM148.333,25.2a6.119,6.119,0,1,0,6.313,6.117,6.216,6.216,0,0,0-6.313-6.117" transform="translate(-132.588 -15.668)" fill="#fff"/>
</svg>
