<svg xmlns="http://www.w3.org/2000/svg" xmlns:xlink="http://www.w3.org/1999/xlink" width="504.564" height="380.676" viewBox="0 0 504.564 380.676">
  <defs>
    <clipPath id="clip-path">
      <rect id="Rectangle_103" data-name="Rectangle 103" width="449" height="273.796" fill="#f5f1dc"/>
    </clipPath>
  </defs>
  <g id="Group_597" data-name="Group 597" transform="matrix(-0.966, -0.259, 0.259, -0.966, 433.701, 380.676)" opacity="0.437">
    <g id="Group_596" data-name="Group 596" clip-path="url(#clip-path)">
      <path id="Path_485" data-name="Path 485" d="M91.31,95.112c-.979,24.363,31.9,30.973,41.813,8.921a25.548,25.548,0,0,0-.439-23.05C124.3,64.542,102.41,59.612,87.3,69.888c-15.056,9.463-21.822,29.252-16.547,46.09,4.745,16.779,18.206,30.366,34.724,35.87,39.614,13.393,81.405-23.594,76.85-64.494C180.338,68.423,169.758,51.2,154.94,39.529,124.1,14.539,79.645,21.618,52.214,48.171,15.867,81.847,17,144.688,51.317,179.336c38.428,39.57,103.4,39.656,141.847.062,30.4-30.64,37.713-78.263,19.657-117.065C184.087-1.395,104.33-18.473,48.791,21.407-6.238,59.8-15.985,135.868,26.022,187.73c13.2,16.3,30.836,28.44,49.643,37.347,37.773,17.488,79.765,24.74,121.2,24.328a313.536,313.536,0,0,0,149.545-40.646c36.227-21.146,74.36-51.744,80.074-96.042.6-3.264.38-7.356.473-10.663-.08-1.366-.482-5-.59-6.418a77.076,77.076,0,0,0-3.72-14.53c-9.471-25.1-39.352-43.509-65.485-33-27.83,12.067-34.472,46.61-8,64.052,7.362,4.764,17.458,6.458,25.769,2.774,11.045-4.54,19.24-18.612,12.33-29.708-5.558-9.619-21.552-11.792-25.882-.023-1.077,2.845-1.347,6.29.289,8.955,3.32,5.935,13.3,6.934,16.821.817A16.106,16.106,0,0,0,379.322,93l-1.744-.565c-1.659,4.543-7.537,5.008-10.981,2.411a5.739,5.739,0,0,1-2.38-5.095c.127-.5.17-.97.32-1.472l.585-1.535c4.9-10.14,19.26-2.308,18.249,7.226-.263,6.055-5.643,11.706-11.34,13.751-10.347,3.724-21.725-3.629-26.475-12.772a22.97,22.97,0,0,1,1.271-23.7A31.875,31.875,0,0,1,361.59,59.31c18.795-6.772,40.1,7.619,47.1,25.255l.595,1.508.468,1.614a41.392,41.392,0,0,1,1.614,6.5,38.64,38.64,0,0,1,.774,6.638l.124,1.668-.063,1.682c-2.79,65.51-101.338,109.55-156.8,123.184-57.729,14.337-121.191,13.776-176.627-9.126C41.42,202.929,11.935,171.047,6.7,130.181.562,90.283,19.346,49.63,53.177,27.831,85.381,6,130.547,3.766,163.326,25.216c39.673,24.8,55.6,79.731,33.184,121.179-23.606,44.519-80.267,58.258-121.072,28.543C45.657,153.8,36.2,109.816,53.586,77.971,67.322,52.19,101.3,35.232,129.671,45.782c23.288,8.253,41.737,34.373,35.078,59.291-8.714,34.9-53.352,49.213-76.756,19.26C79.828,113.807,77.16,99.154,83.864,87.42c4.208-7.483,11.894-13.6,20.583-14.321,13.771-1.489,27.9,11.215,24.461,25.418a18.092,18.092,0,0,1-1,3.187l-.293.792-.4.751c-4.846,11.3-20.2,13.323-28.743,4.827a17.95,17.95,0,0,1-5.329-12.9Z" transform="translate(22.047 0)" fill="#f5f1dc"/>
      <path id="Path_486" data-name="Path 486" d="M312.06,61.994c-8.771,41.986-54.048,65.8-89.569,83.27-11.114,5.323-22.578,10.231-34.1,14.468-41.595,14.679-85.741,23.65-130.064,24.23A270.943,270.943,0,0,1,15.243,181.1a160.882,160.882,0,0,0,31.571,9.67c60.752,11.548,128.853-1.562,183.189-30.541,36.241-19.464,83.766-52.074,82.057-98.234" transform="translate(113.349 33.77)" fill="#f5f1dc"/>
      <path id="Path_487" data-name="Path 487" d="M404.642,208.58c-76.862,17.757-160.282,26.531-232.524-10.238-35.379-17.835-65.94-47.361-79.334-85.239a131.1,131.1,0,0,1-7.51-50.883c-7.951,28.356-3.139,59.551,10.554,85.456,20.108,39.131,58.349,66.355,99.414,80.168,68.711,23.208,144.88,10.825,209.4-19.263" transform="translate(-81.432 33.892)" fill="#f5f1dc"/>
    </g>
  </g>
</svg>
