<svg xmlns="http://www.w3.org/2000/svg" width="31.436" height="25.547" viewBox="0 0 31.436 25.547">
  <path id="Path_494" data-name="Path 494" d="M279.793,23.46a12.885,12.885,0,0,1-3.7,1.016,6.464,6.464,0,0,0,2.836-3.568,12.9,12.9,0,0,1-4.094,1.566,6.456,6.456,0,0,0-10.992,5.881,18.3,18.3,0,0,1-13.293-6.739,6.46,6.46,0,0,0,2,8.611,6.416,6.416,0,0,1-2.92-.807V29.5a6.454,6.454,0,0,0,5.173,6.324,6.488,6.488,0,0,1-1.7.227,6.4,6.4,0,0,1-1.213-.117,6.458,6.458,0,0,0,6.024,4.48,12.94,12.94,0,0,1-8.011,2.761,13.321,13.321,0,0,1-1.537-.09,18.27,18.27,0,0,0,9.888,2.9c11.862,0,18.349-9.826,18.349-18.35,0-.279-.007-.557-.017-.836a13.139,13.139,0,0,0,3.216-3.338" transform="translate(-248.357 -20.436)" fill="#fff"/>
</svg>
